PathFileType	4	(X/Y/Z)	/Users/visionmauri/Downloads/Videos/OAW08-top_Sports2D/OAW08-top_Sports2D_px_person00.trc
DataRate	CameraRate	NumFrames	NumMarkers	Units	OrigDataRate	OrigDataStartFrame	OrigNumFrames
30.0	30.0	5	22	m	30.0	268	2144
Frame#	Time	Hip			RHip			RKnee			RAnkle			RBigToe			RSmallToe			RHeel			LHip			LKnee			LAnkle			LBigToe			LSmallToe			LHeel			Neck			Head			Nose			RShoulder			RElbow			RWrist			LShoulder			LElbow			LWrist			
		X1	Y1	Z1	X2	Y2	Z2	X3	Y3	Z3	X4	Y4	Z4	X5	Y5	Z5	X6	Y6	Z6	X7	Y7	Z7	X8	Y8	Z8	X9	Y9	Z9	X10	Y10	Z10	X11	Y11	Z11	X12	Y12	Z12	X13	Y13	Z13	X14	Y14	Z14	X15	Y15	Z15	X16	Y16	Z16	X17	Y17	Z17	X18	Y18	Z18	X19	Y19	Z19	X20	Y20	Z20	X21	Y21	Z21	X22	Y22	Z22
268	8.937501944314825	521.9225881430007	653.5030285935634	0.0	507.8290021444219	656.0466429762947	0.0	507.6864909004159	718.7733404843797	0.0	508.4574494888564	782.4562502733344	0.0	504.22440379473005	805.3472421604789	0.0	497.32301149142967	802.6542528583077	0.0	511.7747697332515	792.8852290201125	0.0	537.7695654202772	655.3072115055875	0.0	533.0404221724075	713.411272945047	0.0	528.255247013979	765.0653554091294	0.0	526.7740637093916	788.044716309196	0.0	533.8750170239649	787.8169444949328	0.0	526.4200124443155	773.3948637361124	0.0	519.5207550340913	560.3196562506795	0.0	520.3542925433247	516.6705169859569	0.0	519.2732428255379	546.894959311602	0.0	491.6144838228265	566.3968077578138	0.0	479.27694067013937	613.8958825880057	0.0	468.44208501040805	657.5645116956127	0.0	548.8885213020383	566.3229063833021	0.0	561.8706224339062	613.5497777774739	0.0	560.5916653607071	655.8307120106973	0.0
269	8.970850832166745	521.2598893588139	654.4067518073365	0.0	506.98706351832976	657.3408973045215	0.0	506.8514139434043	720.3793770051034	0.0	508.16299596670365	783.8830139669591	0.0	505.35061951447483	807.3650725701236	0.0	497.15116961507886	804.694968013537	0.0	511.66407055412185	793.9563951995676	0.0	537.1077289935106	656.6494841532252	0.0	534.2333352162832	713.687917828671	0.0	529.2196535894552	761.9936337650325	0.0	527.3059852119451	787.6401489897904	0.0	534.9980456275049	786.991666607534	0.0	526.645322475968	768.2076305990846	0.0	518.5744050922191	560.6966364017437	0.0	519.5054288297804	517.2474978557328	0.0	518.4406176798935	548.1606702608797	0.0	490.7208606001433	566.8986601899225	0.0	478.72685692963137	614.8803582010856	0.0	468.03640459002827	658.7808379798316	0.0	548.2368913172094	566.2982820887465	0.0	561.1913783033249	613.7863941659281	0.0	560.4625519682996	656.3743899681143	0.0
270	9.004199720018667	520.3676454893729	655.4268017094399	0.0	505.8110512217008	658.5918786009315	0.0	505.92973858631177	722.2364150141751	0.0	507.6870939153104	784.9132971953563	0.0	506.18399056749627	808.1184293201045	0.0	496.97052210522094	805.4595343448475	0.0	511.3572498498976	794.8455757288579	0.0	536.314680169678	657.7547935904687	0.0	535.1562191017741	714.6228632089081	0.0	530.0559808635544	759.3436891853586	0.0	527.8047583217347	787.4009841649137	0.0	535.9434059743974	785.9551387671961	0.0	527.0833783058989	763.2735526804915	0.0	517.9170943959251	560.4487339721275	0.0	518.8375306411343	516.5971506416204	0.0	517.8479253116449	549.0835898770061	0.0	489.97210786296876	567.46560481033	0.0	477.84957405751186	616.0255374658234	0.0	467.29229270006687	660.2904182210729	0.0	547.9636695319915	566.4239619886339	0.0	560.6921529433608	614.4427408382056	0.0	560.5310675048428	657.235158219032	0.0
271	9.037548607870587	519.6014486347432	656.4523509731272	0.0	504.71550188464374	659.5079009952796	0.0	505.1640803638636	723.6788273218483	0.0	507.42762556120346	785.4116132776661	0.0	506.3021595958671	807.9642905630523	0.0	496.7251906581091	805.2855324066004	0.0	511.3360732866097	795.4535081927637	0.0	535.6716316418327	658.1850646547707	0.0	535.2665863579981	715.583776364924	0.0	530.8282512993752	758.466345073433	0.0	528.8265655026134	787.489952812236	0.0	537.0473077757063	785.3612695455681	0.0	528.0570499640739	761.2166022195485	0.0	517.487782339123	559.8818793064086	0.0	518.3782548445438	516.7016392693482	0.0	517.740194695295	550.1256459281784	0.0	489.47140557779306	567.6792266307135	0.0	477.0083218178249	617.2118497264547	0.0	467.0056721763163	661.7658704169137	0.0	547.9279821788533	566.6388728357238	0.0	560.5285666670244	615.3624026762408	0.0	561.0445418536831	658.244080286355	0.0
272	9.070897495722509	519.206253409026	657.1379477886774	0.0	504.056549232645	660.1233368057268	0.0	504.79076671628894	724.7826392131998	0.0	507.35187030474566	785.7510936957156	0.0	505.8978569189179	807.9734704107686	0.0	496.3491185958534	805.2816906980913	0.0	511.2885650510243	795.6889452517822	0.0	535.3106415851897	658.4263253899677	0.0	534.7995952951173	716.5893953795011	0.0	531.4911952476998	759.8177446791332	0.0	530.3169254046558	788.6501886588081	0.0	538.4886786319273	786.2117788209085	0.0	529.0662117092652	762.747059658519	0.0	517.1949980990928	559.2571514105955	0.0	518.0385317163634	516.3009281353961	0.0	517.7602540474579	549.5507422543025	0.0	489.01319080988975	567.6097571052263	0.0	476.40262355602806	618.1299780953086	0.0	467.42983753748484	663.1140212266755	0.0	547.9610745263155	566.8352279183704	0.0	560.5331080593697	616.1032217253917	0.0	561.7420515898984	658.9816726563561	0.0
